<?xml version="1.0" standalone="no"?>
<!DOCTYPE svg PUBLIC "-//W3C//DTD SVG 1.1//EN" "http://www.w3.org/Graphics/SVG/1.1/DTD/svg11.dtd">
<svg xmlns="http://www.w3.org/2000/svg">
<metadata>Copyright (C) 2017 by original authors @ fontello.com</metadata>
<defs>
<font id="sp-icon" horiz-adv-x="1000" >
<font-face font-family="sp-icon" font-weight="400" font-stretch="normal" units-per-em="1000" ascent="850" descent="-150" />
<missing-glyph horiz-adv-x="1000" />
<glyph glyph-name="design" unicode="&#xe800;" d="M984 850h-128c-8 0-16-7-16-16v-48h-680v48c0 9-8 16-16 16h-128c-9 0-16-7-16-16v-128c0-8 7-16 16-16h48v-680h-48c-9 0-16-8-16-16v-128c0-9 7-16 16-16h128c8 0 16 7 16 16v48h680v-48c0-9 8-16 16-16h128c9 0 16 7 16 16v128c0 8-7 16-16 16h-48v507 40 133h48c9 0 16 8 16 16v128c0 9-7 16-16 16z m-952-128v96h96v-96h-96z m96-840h-96v96h96v-96z m712 112v-48h-680v48c0 8-8 16-16 16h-48v680h48c8 0 16 8 16 16v48h680v-48c0-8 8-16 16-16h48v-133-40-507h-48c-8 0-16-8-16-16z m128-16v-96h-96v96h96z m0 744h-96v96h96v-96z m-197-85h-542c-9 0-16-7-16-16v-271c0-9 7-16 16-16h542c9 0 16 7 16 16v271c0 9-7 16-16 16z m-67-32l-204-102-204 102h408z m-459-9l219-110-219-110v220z m51-230l204 102 204-102h-408z m459 10l-219 110 219 110v-220z m-287-281h-239c-9 0-16-8-16-16s7-16 16-16h239c9 0 16 7 16 16s-7 16-16 16z m303 0h-239c-9 0-16-8-16-16s7-16 16-16h239c9 0 16 7 16 16s-7 16-16 16z m-303 68h-239c-9 0-16-8-16-16s7-16 16-16h239c9 0 16 7 16 16s-7 16-16 16z m303 0h-239c-9 0-16-8-16-16s7-16 16-16h239c9 0 16 7 16 16s-7 16-16 16z m-303 67h-239c-9 0-16-7-16-16s7-16 16-16h239c9 0 16 8 16 16s-7 16-16 16z m303 0h-239c-9 0-16-7-16-16s7-16 16-16h239c9 0 16 8 16 16s-7 16-16 16z m0 68h-542c-9 0-16-7-16-16s7-16 16-16h542c9 0 16 7 16 16s-7 16-16 16z" horiz-adv-x="1000" />

<glyph glyph-name="id-card" unicode="&#xe801;" d="M854 550h-2c-12 0-21-9-21-21s9-21 21-21h2c11 0 20 10 20 21s-9 21-20 21z m-62 0h-250c-12 0-21-9-21-21s9-21 21-21h250c11 0 21 10 21 21s-10 21-21 21z m0-195h-250c-12 0-21-10-21-21s9-21 21-21h250c11 0 21 9 21 21s-10 21-21 21z m-43-123c12 0 21 9 21 21s-9 20-21 20h-145c-12 0-21-9-21-20 0-12 9-21 21-21l145 0 0 0z m-207 0h1c12 0 21 9 21 21s-9 20-21 20h-1c-12 0-21-9-21-20 0-12 9-21 21-21z m356 431h-46l-159 159c-18 18-43 28-69 28h0c-26 0-50-10-68-28l-159-159h-295c-56 0-102-46-102-103v-420c0-57 46-102 102-102h46l159-160c19-19 44-28 69-28 25 0 50 9 69 28l159 160h294c56 0 102 45 102 102v420c0 57-46 103-102 103z m-313 129c10 11 24 16 39 16 15 0 29-5 40-16l129-129h-188l24 24 1 1c9 9 8 22 0 30-8 8-21 8-29 0l-55-55h-90l129 129z m-170-884c-22-22-57-22-78 0l-130 130h189l-26-26c-8-8-8-22 0-30 4-4 9-6 14-6 6 0 11 2 15 6l55 56h91l-130-130z m543 232c0-34-27-61-60-61h-796c-33 0-60 27-60 61v420c0 34 27 61 60 61h303c0 0 0 0 0 0h493c33 0 60-27 60-61l0-420 0 0z m-589 242c1 6 3 13 4 21 0 2 1 5 1 8 5 23 9 48 3 66-13 44-50 73-95 73-45 0-83-28-96-73-5-18-1-43 4-66 0-3 0-6 1-8 1-8 3-15 4-21-43-29-69-77-69-130 0-11 10-21 21-21h270c12 0 21 10 21 21 0 53-26 101-69 130z m-143 83c8 27 29 43 56 43 26 0 47-16 55-43 3-10-2-36-4-47 0-3-1-6-1-8-2-10-4-22-7-28-2-2-3-3-11-8-2-1-5-3-8-5-17-10-32-10-49 0-3 2-6 4-8 5-7 5-9 6-10 8-4 5-6 18-8 28 0 2 0 5-1 8-2 11-7 37-4 47z m-57-192c6 30 23 56 47 73 3-2 7-5 11-7 2-1 5-3 7-5l2-1c15-8 30-13 46-13h0c15 0 31 5 46 13l1 1c3 2 5 4 8 5 4 3 7 5 10 7 25-17 42-43 47-73h-225z m248-81h-270c-12 0-21-10-21-21 0-12 9-21 21-21h270c11 0 21 9 21 21 0 11-10 21-21 21z m437 0h-2c-12 0-21-10-21-21 0-12 9-21 21-21h2c11 0 20 9 20 21 0 11-9 21-20 21z m-62 0h-250c-12 0-21-10-21-21 0-12 9-21 21-21h250c11 0 21 9 21 21 0 11-10 21-21 21z m-250 235h125c11 0 21 9 21 21s-10 21-21 21h-125c-12 0-21-10-21-21 0-12 9-21 21-21z" horiz-adv-x="1000" />

<glyph glyph-name="linkedin-logo" unicode="&#xe802;" d="M1000 242v-370h-214v345c0 87-31 146-109 146-59 0-94-40-110-78-5-14-7-33-7-53v-360h-214c0 0 3 584 0 645h214v-91c0-1-1-2-1-2h1v2c29 44 79 106 193 106 141 0 247-92 247-290z m-879 586c-73 0-121-48-121-112 0-61 47-111 119-111h1c75 0 121 50 121 111-1 64-46 112-120 112z m-108-956h214v645h-214v-645z" horiz-adv-x="1000" />

<glyph glyph-name="location" unicode="&#xe803;" d="M754 596c0 140-114 254-254 254s-254-114-254-254c0-135 105-245 237-254v-475c0-9 8-17 17-17s17 8 17 17v475c132 9 237 119 237 254z m-339 0c-37 0-67 30-67 68s30 67 67 67 68-30 68-67-30-68-68-68z" horiz-adv-x="1000" />

<glyph glyph-name="luxury" unicode="&#xe804;" d="M997 706l-91 132c-3 4-9 7-14 7h-368c-6 0-11-3-15-7l-91-132c-4-6-4-15 1-21l241-316c0 0 0 0-1 0h-85c-7 0-13-4-16-11l-50-131c-1-2-1-4-1-7v-145h-64c-6 0-12-3-15-8l-37-58h-314c-20 0-40-8-54-22-15-15-23-34-23-55 0-42 35-77 77-77h815c9 0 17 8 17 17v186 163c0 2 0 4-1 6l-51 131c-2 7-9 11-16 11h-85c0 0-1 0-1 0l242 317c4 5 4 14 0 20z m-490-816h-21v34c0 10-8 18-17 18-10 0-18-8-18-18v-34h-27v34c0 10-8 18-18 18-9 0-17-8-17-18v-34h-28v34c0 10-8 18-17 18-10 0-18-8-18-18v-34h-249c-23 0-42 19-42 42 0 12 4 22 12 30 8 8 19 13 30 13h323c6 0 12 3 15 8l38 58h54l0-151 0 0z m135 0h-100v327l45 118h55v-445z m217 920l-55-84-63 84h118z m-89-96h-128l64 85 64-85z m12-35l-50-185c-16 2-33 2-50-1l-51 186h151z m-110 131l-63-83-53 83 116 0 0 0z m-149-14l53-82h-110l57 82z m-55-117h126l54-195c-8-3-15-7-23-11l-157 206z m288-638c10 0 18 7 18 17v277h56l44-118v-159-168h-19v34c0 10-8 18-17 18-10 0-18-8-18-18v-34h-28v34c0 10-7 18-17 18s-17-8-17-18v-34h-28v34c0 10-8 18-17 18s-18-8-18-18v-34h-18v151l79 0 0 0z m-79 34v273l17-23c0 0 1-1 2-2 3-3 7-4 12-4 5 0 10 2 14 6l17 23v-273l0 0-62 0 0 0z m31 290l-61 80c8 5 18 9 27 11 22 6 45 6 66 0 10-2 20-6 29-11l-61-80z m82 108c-8 4-16 8-24 11l52 195h130l-158-206z m47 241l55 83 58-83h-113z" horiz-adv-x="1000" />

<glyph glyph-name="megaphone" unicode="&#xe805;" d="M733 520v180c0 10-5 18-13 22-8 5-18 4-26-1-179-124-282-140-352-140h-199c-79 0-143-64-143-143v-53c0-79 64-143 143-143h96l103-252c4-9 14-15 23-15 4 0 7 1 10 2 13 5 19 20 14 33l-96 232h49c242 0 342-129 346-134 5-7 12-11 20-11 3 0 5 1 8 2 10 3 17 12 17 23v180c50 12 87 56 87 109 0 53-37 98-87 109z m-683-135v53c0 51 42 93 93 93h87v-239h-87c-51 0-93 42-93 93z m633-203c-55 46-164 110-341 110h-62v239h62c71 0 174 14 341 122v-471z m50 173v112c22-9 37-31 37-56 0-25-15-46-37-56z m242 81h-98c-14 0-25-11-25-25s11-25 25-25h98c14 0 25 11 25 25 0 14-11 25-25 25z m-133 53c4-10 14-16 24-16 3 0 6 1 9 2l95 37c12 5 19 19 14 32-5 13-20 19-33 14l-94-37c-13-5-19-19-15-32z m128-178l-95 37c-13 5-27-1-33-14-5-13 2-27 15-33l94-37c3-1 6-1 9-1 10 0 20 6 24 16 5 12-2 27-14 32z" horiz-adv-x="1000" />

<glyph glyph-name="owl-side-view-outline" unicode="&#xe806;" d="M858 659h-66c-31 116-140 191-291 191-152 0-260-75-292-191h-66c-10 0-18-8-18-18 0-10 8-18 18-18h60c-2-12-4-23-4-35v-161c-1-4-1-8 0-12v-118c0-166 135-302 302-302 10 0 18 8 18 18v408c0 8-6 15-13 17-7 3-16 0-20-7-1-1-45-65-114-70-44-5-90 18-137 66v121c1-1 1-1 1-2 19-28 48-47 81-53 8-2 16-3 24-3 25 0 50 8 71 22 19 13 32 31 41 51 14-21 23-46 23-74 0-9 8-17 18-17h12c10 0 18 8 18 17 0 28 9 53 23 74 9-20 22-38 41-51 21-14 46-22 71-22 8 0 16 1 24 3 33 6 62 25 81 53 1 1 1 3 2 5v-122c-24-43-53-66-84-69-61-6-122 73-122 73-5 6-13 9-20 6-8-2-13-9-13-17l1-365c2-53 15-97 40-130h-158c-1 1-1 2-1 2l-183 149c-8 6-19 5-25-3-7-8-5-19 2-25l152-123h-156c-10 0-18-8-18-18 0-10 8-18 18-18h404c45-33 100-41 138-41 26 0 45 3 46 4 9 1 15 9 15 17v550c1 3 1 7 0 10v157c0 12-2 23-3 35h59c9 0 18 8 18 18 0 10-9 18-18 18z m-92-772c-29-2-96-4-144 35-36 28-56 74-59 135v320c29-26 74-56 122-52 30 2 57 16 81 43v-481z m-391 438c47 4 83 28 108 49v-342c-138 9-248 124-248 265v81c46-39 93-57 140-53z m17 217c-20-14-44-19-68-14-24 4-45 18-58 38-12 17-15 37-14 57h23c2-33 23-61 55-67 33-6 65 16 77 49 7-4 14-8 20-13-6-20-18-38-35-50z m108 9c-8 21-22 39-37 55-1 1-1 1-2 1-30 31-72 52-118 52h-96c34 106 144 155 254 155 110 0 219-49 253-155h-96c-47 0-89-21-119-52-1 0-1 0-1-1-16-16-30-34-38-55z m176-23c-24-5-48 0-68 14-17 12-29 30-35 50 6 5 13 9 20 13 12-33 44-55 78-49 31 6 52 34 54 67h23c2-20-2-40-14-57-13-20-34-34-58-38z" horiz-adv-x="1000" />

<glyph glyph-name="paper" unicode="&#xe807;" d="M995 809c-4 4-11 5-16 2l-970-450c-6-3-9-8-9-14s3-11 8-13l275-135c5-3 11-2 15 1l267 200-209-216c-3-3-5-7-4-11l21-272c0-6 4-11 10-13 1-1 3-1 4-1 5 0 9 2 12 5l145 169 181-86c4-2 8-2 12 0 4 2 7 5 8 9l254 809c2 6 0 12-4 16z" horiz-adv-x="1000" />

<glyph glyph-name="paper-clips" unicode="&#xe808;" d="M158-118c-40 0-81 16-112 47-61 61-61 162 0 223l606 606c39 38 90 60 144 60s106-22 144-60c80-80 80-209 0-288l-435-436c-9-9-24-9-34 0-9 10-9 25 0 34l436 435c60 61 60 160 0 221-30 30-69 46-111 46-41 0-81-16-110-46l-606-606c-21-20-32-48-32-78s11-57 32-78c43-43 113-43 156 0l477 478c25 25 25 65 0 90-25 25-66 25-91 0l-306-306c-10-9-25-9-34 0-9 9-9 24 0 34l306 306c44 44 115 44 159 0 44-43 44-115 0-158l-477-477c-31-31-71-47-112-47z" horiz-adv-x="1000" />

<glyph glyph-name="pdf" unicode="&#xe809;" d="M682 415c3 3 4 5 4 7-2 1-5 3-20 3-9 0-20 0-31-2 14-11 17-16 26-16 4 0 16 0 21 8z m-328-128c3 1 18 8 46 60-37-21-52-38-53-48 0-1-1-5 7-12z m534-109v431c0 13-2 23-10 31l-200 201c-6 6-15 9-23 9h-500c-21 0-43-16-43-50v-622h776z m-241 614c0 7 9 11 15 6l174-174c5-6 1-15-6-15h-183v183z m-329-489c3 28 38 57 103 87 26 57 51 127 65 185-17 38-34 86-21 115 4 10 9 17 19 21 4 1 14 3 18 3 8 0 16-11 21-18 5-7 17-21-6-118 23-48 56-97 88-130 22 4 42 6 58 6 27 0 43-6 50-19 5-11 3-23-7-37-10-14-23-21-38-21-21 0-46 13-73 40-49-11-106-29-152-49-15-31-28-55-41-73-18-25-33-37-48-37h0c-6 0-12 2-17 6-18 13-20 28-19 39z m48-244c-3 4-6 7-10 9-5 2-11 3-18 3h-21v-69h26c3 0 7 1 10 2 4 1 7 3 10 6 2 3 5 6 6 11 2 5 3 11 3 18 0 3 0 6-1 10-1 3-3 7-5 10z m140 478c-12-43-29-89-46-131 36 14 75 26 112 35-23 27-47 61-66 96z m-394-394v-259c0-17 21-34 43-34h691c21 0 42 17 42 34v259h-776z m283-128c-3-7-7-13-13-18-5-5-11-9-19-11s-16-4-25-4h-21v-63h-28v174h50c7 0 14-1 22-4 7-2 13-6 19-10 6-5 10-11 14-17s5-15 5-23c0-9-1-17-4-24z m173-41c-3-10-7-19-11-26s-11-12-16-16-12-7-17-9c-6-1-11-3-16-3-4-1-8-1-10-1h-65v174h52c14 0 27-3 38-7s21-11 28-19 13-16 16-26c4-10 6-20 6-30 0-15-2-27-5-37z m154 97h-79v-54h72v-20h-72v-78h-29v174h108v-22z m-192-19c-4 6-11 10-20 14s-19 5-33 5h-16v-131h28c19 0 33 6 41 18s13 30 13 53c0 8-1 15-3 22-1 7-5 13-10 19z m-35 631c-1-1-22-31 2-56 17 37-1 56-2 56z" horiz-adv-x="1000" />

<glyph glyph-name="rocket-ship" unicode="&#xe80a;" d="M995 830c-2 8-8 15-17 16-77 10-157 1-231-24-74-25-142-68-198-123l-126-126-181-24c-4 0-8-2-11-5l-176-175c-5-5-6-13-4-19 2-7 8-12 14-13l133-25 26-25-56-30c-5-3-8-9-9-14s1-12 5-16l210-211c4-3 8-5 13-5 1 0 2 0 3 0 6 1 11 5 14 10l30 55 26-26 24-132c2-7 7-13 13-15 2 0 4-1 6-1 5 0 10 2 13 6l176 175c3 3 4 7 5 11l23 182 126 126c56 55 98 123 124 197 26 73 34 153 25 231z m-794-480l-93 17 145 146 127 16-179-179z m182-290l-174 175 43 23 155-154-24-44z m278 45l-145-146-18 93 179 179-16-126z m159 323l-342-342-244 244 342 342c50 50 111 89 177 112 9-44 30-85 63-117 32-32 72-53 117-62-24-66-63-127-113-177z m124 213c-38 7-74 25-102 53s-46 63-52 101c54 15 112 20 168 15 6-56 1-114-14-169z m-386-69c-45-45-45-118 0-162 22-23 51-34 81-34 29 0 59 11 81 34h0c45 44 45 117 0 162-45 44-117 44-162 0z m135-136c-30-30-78-30-108 0-30 30-30 79 0 109 15 15 35 22 54 22 20 0 39-7 55-22 29-30 29-79-1-109z m-445-340c-7 7-19 7-27 0l-162-162c-7-7-7-20 0-27 4-4 9-5 14-5s9 1 13 5l162 162c7 8 7 20 0 27z m25-52l-73-73c-7-7-7-19 0-27 4-3 8-5 13-5s10 2 14 5l73 74c7 7 7 19 0 26-8 8-20 8-27 0z m-99-106c-8 0-15-5-18-13-2-7 0-16 6-21 7-5 16-5 23-1 7 5 10 15 6 23-2 7-9 12-17 12z m18-12c0-1-1 1 0 0l0 0z m-71-34l-10-10c-8-7-8-19 0-27 3-3 8-5 13-5 5 0 10 2 13 5l10 11c8 7 8 19 0 26s-19 8-26 0z m-14 167c-7 7-19 7-27 0l-73-73c-7-8-7-20 0-27 4-4 9-6 14-6s9 2 13 6l73 73c7 7 7 19 0 27z m30 7c8 2 14 9 15 16 0 8-4 16-11 19-7 4-16 2-22-4-6-6-7-16-2-23-1 0-1 0 0 0 0-1 0 0 0 0 5-7 13-10 20-8z m49 45l10 10c8 7 8 19 0 27-7 7-19 7-26 0l-10-10c-8-8-8-20 0-27 3-4 8-6 13-6 5 0 10 2 13 6z" horiz-adv-x="1000" />

<glyph glyph-name="scales" unicode="&#xe80b;" d="M0 225c0-95 77-172 172-172s172 77 172 172v0l0 0c0 0 0 0 0 0 0 1 0 1 0 2 0 0 0 0 0 0 0 1 0 1 0 1 0 1-1 1-1 1 0 0 0 1 0 1 0 0 0 1 0 1v0l0 0c0 0 0 0 0 0l-141 344c0 1-1 2-2 3 11 9 18 21 19 36l227 64c2-4 5-7 8-11 0-1-1-3-1-4v-641c-25 0-47-21-47-47v-31h-78c-25 0-47-21-47-47v-31c0-9 8-16 16-16h406c9 0 16 7 16 16v31c0 26-21 47-47 47h-78v31c0 26-21 47-47 47v641c0 1 0 3-1 4 3 4 6 8 9 12 5 10 8 21 8 32l227 65c3-4 6-7 9-9l-141-348 0 0v0c0-1 0-1-1-1 0 0 0-1 0-1 0 0 0 0 0-1s0 0 0 0c0-1 0-1-1-1 0 0 0-1 0-1 0 0 0-1 0-1 0 0 0 0 0 0 0 0 0 0 0-1v0c1-94 78-171 172-171s172 77 172 171v1l0 0c0 0 0 0 0 0 0 0 0 1 0 1 0 0 0 1 0 1 0 0 0 0 0 1 0 0 0 0 0 1 0 0 0 0 0 0-1 1-1 1-1 1v1l0 0c0 0 0 0 0 0l-141 343c0 1-1 3-2 4 12 8 19 22 19 37 0 26-21 47-47 47-25 0-45-20-47-44l-227-65c-14 24-43 37-71 29-16-5-29-15-38-30-5-10-8-21-8-32l-227-65c-9 12-22 20-38 20-26 0-47-22-47-47 0-15 7-28 17-37l-141-348 0 0v0c0 0 0 0 0 0 0-1 0-1 0-2 0 0-1 0-1 0 0 0 0-1 0-1 0 0 0-1 0-1 0 0 0 0 0-1 0 0 0 0 0-1 0 0 0 0 0 0 0 0 0 0 0 0 0 0 0 0 0 0z m968 172c-8-70-68-125-140-125s-132 55-140 125h265 12 3z m-7 31h-8-258l133 328c0-2 1-4 1-6l132-322z m-133 391c9 0 16-7 16-16s-7-15-16-15-15 7-15 15 7 16 15 16z m-355-94c4 7 10 12 18 15 3 0 6 1 9 1 14 0 26-9 30-23l0 0 0 0c2-8 1-16-3-24-4-7-10-12-18-15-17-4-34 5-39 22l0 0 0 0c-2 8-1 16 3 24z m43-76v-627h-32v627c6-1 11-2 16-2 5 0 10 1 16 2z m31-658c9 0 16-7 16-16v-47l0 0c0-9 7-16 15-16h94c9 0 16-7 16-15v-16h-375v16c0 8 7 15 15 15h188c8 0 15 7 15 16s-7 16-15 16h-78v31c0 9 7 16 15 16h94z m-375 640c9 0 16-7 16-15s-7-16-16-16-16 7-16 16 7 15 16 15z m0-62c0-2 0-4 1-6l132-322h-8-258l133 328z m125-360h12 3c-8-70-68-125-140-125s-132 55-140 125h265z" horiz-adv-x="1000" />

<glyph glyph-name="strategy" unicode="&#xe80c;" d="M190 121c-1-1-1-2-1-3 0-1 0-3 0-4l0 0c-8-28-1-51 21-71 9-8 13-19 11-30-2-13-11-24-23-28 0 0 0-1 0-1-22-9-33-24-34-45-1-6-2-12-3-19-1-7-2-14-2-21-2-14 1-26 8-35 8-8 19-13 34-14 0 0 0 0 1 0h579c1 0 2 0 3 0 1 0 2 0 3 0 8 0 17 1 26 8 12 9 18 24 16 40-1 8-2 16-4 25-1 8-2 15-3 23 0 1 0 1 0 2-5 22-20 31-31 35-13 4-22 14-25 28-1 7-2 25 16 38 14 10 21 25 19 42-1 14-3 28-5 41-3 23-19 37-43 37h-508c-38-1-50-11-55-48z m565 7c0-1 1-2 1-3 2-13 4-25 5-38 0-3 0-4-2-5-1 0-1 0-1-1-25-19-37-48-32-78 6-29 26-52 53-59 2-1 2-1 3-4 1-8 2-16 3-24 2-8 3-16 4-24 0-1 0-1 0-2l0 0c-1 0-3 0-5 0-1 0-2 0-3 0h-579c-1 0-3 1-3 1 0 1 0 2 0 4 0 0 0 0 0 0 0 6 1 13 2 19 1 7 2 14 3 22 0 5 1 8 9 11 25 10 43 32 48 59 4 25-5 50-24 67-12 11-12 18-9 29 2 5 2 11 2 14 1 6 2 9 2 11 2 1 6 1 13 1h508c1 0 2 0 2 0z m-374-139h226c11 0 20 9 20 20s-9 20-20 20h-226c-12 0-21-9-21-20s10-20 21-20z m-133 448c-1-22-1-43-1-64 0-13 0-27-1-41 0 0 0 0 0-1v-64c0-29 22-51 51-51h280l125-2c26 0 47 21 47 46v45c0 29-15 55-40 71 0 0-32 20-69 52-8 7-21 6-28-2-8-9-7-22 2-29 39-34 74-56 74-56 13-8 20-21 20-37v-44c0-4-3-5-6-5l-124 2h-281c-6 0-10 3-10 9v65c0 14 0 28 0 42 1 21 1 41 2 62 2 50 8 92 17 132 10 38 22 79 46 113 25 35 48 49 80 48 41-2 70 16 88 50 5 11 15 20 27 26 0-34 16-63 46-86 34-26 67-52 100-78s67-52 100-78c6-5 8-8 9-10s-1-5-6-11l-32-38c-14-15-25-17-43-8 0 0 0 1 0 1-10 5-19 9-27 14 0 1 0 1 0 1-20 12-43 16-68 10 0 0 0 0 0 0-23-6-44-1-66 15l-14 12c-9 7-22 6-29-3-7-9-5-21 3-28l15-12c0 0 0 0 1-1 31-23 65-31 99-22 14 3 26 1 37-6 10-6 20-11 30-16 34-19 65-13 92 16 0 0 0 0 0 0l33 39c0 1 0 1 1 1 11 14 15 27 13 41-1 14-9 25-23 37-34 26-67 52-100 78s-67 52-100 78c-25 18-34 40-30 66 0 1 1 1 1 1 1 15-5 23-10 27-5 4-15 9-30 4-30-9-52-26-65-51-11-21-26-30-50-29-60 3-93-33-115-64-29-40-42-87-52-127-10-43-16-87-19-140z" horiz-adv-x="1000" />

<glyph glyph-name="support" unicode="&#xe80d;" d="M976 210h-10v43c39 39 34 110 33 119v73c0 24-19 43-42 43h-2c-7 0-14-2-21-6-7 10-19 17-33 17h-2c-7 0-14-2-20-5-8 9-20 15-33 15h-1c-6 0-12-1-17-4-8 12-21 20-36 20h-2c-23 0-42-19-42-43v-41c-17 1-31-2-41-10-22-19-20-55-18-91 3-48 46-89 63-103v-27h-8c-9 0-16-7-16-16v-81-243c0-9 7-16 16-16h232c9 0 16 7 16 16v243 81c-1 9-8 16-16 16z m-256 132c-1 25-3 56 7 64 4 3 11 4 20 3v-22c0-9 7-16 16-16s16 7 16 16v95c0 6 5 11 11 11h2c6 0 11-5 11-11v-8-53c0-9 7-16 16-16s16 7 16 16v50c2 4 5 6 10 6h1c7 0 12-5 12-11v-2-43c0-9 7-16 15-16s16 7 16 16v40c2 3 6 6 10 6h2c6 0 11-5 11-11v-11-32c0-9 7-16 16-16 9 0 16 7 16 16v32c0 6 5 11 11 11h2c6 0 11-5 11-11v-74c0-1 0-1 0-2 2-19 1-73-28-97-3-3-6-8-6-12v-50h-151v35c0 5-2 9-6 12-1 1-54 41-57 85z m240-457h-201v212h201v-212z m0 244h-201v49h8 183 10v-49z m-290 461l28 102 4 15c0 0 0 0 0 0 3 11 1 23-5 33-7 9-16 16-27 19l-2 0c-7 2-14 2-21 0-5 11-16 20-29 23l-1 1c-7 1-14 1-21-1-1 2-1 3-2 4-6 9-15 16-26 19l-2 0c-6 1-12 2-17 1-1 2-3 5-4 8-6 9-15 16-27 19l-1 0c-11 3-23 1-33-5-9-6-16-15-19-27l-22-82c0 0-20 25-48 19-27-6-23-58-26-74-8-49 27-101 39-116l0-72h-13c-9 0-16-7-16-16v-81-510c0-9 7-16 16-16h232c9 0 16 7 16 16v479c0 9-7 16-16 16s-16-7-16-16v-463h-201v479h201v-27-17c0-9 7-16 16-16s16 7 16 16v17 42 82c0 8-7 15-16 15h-6l0 41c26 18 41 48 49 73z m19 72m-235 99l-11-41m168-325h-201v50h201l0-50 0 0z m-13 145c-6-2-9-8-9-14l0-48h-150l0 76c0 3-1 7-3 10-1 1-43 52-36 95 3 14-2 36 9 41 7 3 29-12 29-12 1-5 5-8 10-10 9-2 17 3 20 11l28 105c0 0 0 0 0 0 1 3 2 6 5 7 3 2 6 3 9 2l1-1c3 0 6-2 7-5 2-2 2-5 2-8l-2-7-19-65c-2-8 3-17 11-19 2 0 3-1 5-1 6 0 13 5 15 12l18 62c2 3 7 5 11 4l1-1c3-1 6-2 7-5 2-2 2-5 2-8l-17-56c-2-8 3-17 11-20 2 0 3 0 4 0 7 0 14 4 15 11l16 52c2 4 7 5 11 4l2 0c6-2 10-8 8-14l-2-10-13-43c-3-8 2-17 10-20 1 0 3 0 5 0 6 0 12 4 15 11l13 43c0 0 0 1 1 1 0 0 0 0 0 0 1 6 7 10 13 9l2-1c6-1 10-7 8-13l-23-84c0-1 0-2 0-2 0-1-10-68-50-89z m-286-256v74c0 23-19 43-43 43h-1c-8 0-15-2-21-6-8 10-20 17-34 17h-1c-7 0-14-2-20-6-8 10-20 16-33 16h-2c-6 0-11-1-17-4-7 12-21 20-35 20h-2c-24 0-43-20-43-43v-41c-17 2-30-2-41-10-22-19-20-55-17-91 3-48 46-89 62-103v-27h-8c-9 0-16-7-16-16v-81-157c0-8 7-15 16-15h233c9 0 16 7 16 15v157 81c0 9-7 16-16 16h-10v43c38 39 34 109 33 118z m-39-399h-201v125h201v-125z m0 157h-201v49h8 183 9v-49z m-21 143c-3-3-5-7-5-12v-50h-151v0 35c0 5-3 9-7 12-15 11-54 48-56 85-2 25-3 56 6 64 4 4 11 4 21 3v-22c0-9 7-16 16-16s15 7 15 16v95c0 6 6 11 12 11h1c7 0 12-5 12-11v-7-54c0-9 7-16 15-16s16 7 16 16v50c2 4 6 6 10 6h2c6 0 11-5 11-11v-2-43c0-9 7-16 16-16 9 0 16 7 16 16v40c2 3 5 6 10 6h2c6 0 11-5 11-11v-11-32c0-9 7-16 16-16s15 7 15 16v32c0 6 6 11 12 11h1c7 0 12-5 12-11v-74c0-1 0-1 0-2 1-19 0-73-29-97z" horiz-adv-x="1000" />

<glyph glyph-name="target" unicode="&#xe80e;" d="M979 370h-117c-10 184-158 332-342 342v117h-40v-117c-184-10-332-158-342-342h-116v-40h116c10-184 158-332 342-342v-117h41v117c183 10 331 158 341 342h117v40z m-158 0h-94c-9 110-97 197-207 207v94c161-10 291-140 301-301z m-135-40c-9-88-80-157-166-166v62h-40v-62c-88 9-157 78-166 166h62v40h-62c9 88 80 157 166 166v-62h41v62c85-9 156-78 165-166h-62v-40h62z m-206 341v-94c-110-9-197-96-207-206h-94c10 161 140 290 301 300z m-301-341h94c9-110 97-197 207-207v-94c-161 10-291 140-301 301z m341-301v94c110 10 197 97 207 207h94c-10-161-140-291-301-301z" horiz-adv-x="1000" />

<glyph glyph-name="transport" unicode="&#xe80f;" d="M661 541c11-9 21-19 30-30 3-4 8-5 12-5 4 0 7 1 10 3 7 6 8 16 2 22-10 13-21 24-34 34-6 6-16 5-22-2-5-6-4-16 2-22z m87-59c0 2-1 3-3 4 0 2-1 3-1 5-5 7-14 10-22 5l-56-32c-5 4-12 8-18 9-13 4-25 2-36-4l-50-29c-5 3-10 6-15 9v57c0 21-13 38-31 44v49c35-2 70-12 102-28 7-5 17-2 21 6 4 8 1 17-7 21-40 22-86 33-132 33-103 0-194-56-243-139 0 0 0-1-1-1 0-1 0-1 0-1-24-42-37-89-37-140 0-60 18-117 54-165 3-4 7-7 12-7 3 0 7 1 9 3 7 5 9 15 4 22-2 3-4 6-6 9l42 24c6-4 12-7 19-9 4-1 8-2 12-2 8 0 16 2 24 6l49 29c5-3 10-6 16-9v-57c0-21 13-38 31-44v-49c-54 3-105 23-146 58-6 6-16 5-22-2-5-7-4-16 2-22 50-43 115-66 181-66 104 0 194 56 243 139 0 1 0 1 1 1 0 1 0 1 0 1 24 42 37 89 37 140 0 46-11 92-33 132z m-120-40c3 2 7 2 12 1s7-3 9-7c4-7 2-17-6-21l-41-24c-4 9-10 19-16 27l42 24z m-26-133l41-24c8-4 10-13 6-21-2-4-6-6-10-7-4-1-8-1-12 1l-41 24c6 9 12 18 16 27z m-102 213c9 0 16-7 16-16v-48c-5 1-11 1-16 1-5 0-10 0-16-1v48c0 9 7 16 16 16z m-16 77v-49c-18-6-31-23-31-44v-57c-5-3-10-6-15-9l-50 29c-11 6-23 8-35 4-7-1-13-5-19-9l-42 24c42 64 112 107 192 111z m-165-315c-1-7-2-14 0-21l-43-24c-17 34-26 72-26 111 0 40 9 78 26 111l43-24c-2-7-1-14 0-21 4-12 11-22 22-28l50-29c0-3 0-6 0-9 0-3 0-6 0-9l-50-28c-10-7-18-17-22-29z m54-26c-8-4-17-1-22 6-4 8-2 17 6 21l41 24c4-9 10-19 16-27l-41-24z m25 133l-41 24c-8 4-10 14-6 21 5 7 14 10 22 6l41-24c-6-9-12-18-16-27z m24-41c0 43 35 78 78 78s78-35 78-78-35-78-78-78-78 35-78 78z m78-172c-9 0-16 7-16 16v48c6-1 11-1 16-1s11 0 16 1v-48c0-9-7-16-16-16z m16-77v49c18 6 31 23 31 44v57c5 3 10 6 15 9l50-29c7-4 15-6 23-6 5 0 9 1 13 2 7 1 13 5 18 9l42-24c-42-64-112-106-192-111z m208 138l-43 25c4 18-5 39-22 49l-50 28c0 3 0 6 0 9s0 6 0 9l50 29c17 10 26 30 22 49l43 25c17-35 26-73 26-112 0-40-9-78-26-111z m192-75l-81 47c-6 3-12 5-18 6 17 41 27 86 27 133 0 47-10 92-27 133 6 1 12 3 18 6l81 47c11 6 18 16 22 29s1 24-5 35c-13 23-42 30-64 17l-81-47c-6-3-11-7-14-12-55 72-137 121-231 133 3 6 4 12 4 19v93c0 26-21 47-47 47-26 0-47-21-47-47v-94c0-6 2-12 4-18-94-12-176-61-231-133-3 5-8 9-14 12l-81 47c-11 6-23 8-35 5-13-4-23-11-29-22-13-23-5-51 17-64l81-47c6-3 12-5 18-6-17-41-27-86-27-133 0-47 10-92 27-133-6-1-12-3-18-6l-81-47c-22-13-30-42-17-64 6-11 16-19 29-22 4-1 8-2 12-2 8 0 16 3 23 7l82 47c5 3 10 7 14 12 54-72 136-121 230-133-2-6-4-12-4-19v-94c0-25 21-46 47-46s47 21 47 46v94c0 7-1 13-4 19 94 11 176 61 231 133 4-5 8-9 14-12l81-47c8-5 16-7 24-7 16 0 32 9 40 24 7 11 8 23 5 35s-11 23-22 29z m-113 379l82 47c2 1 5 2 7 2 2 0 3 0 5 0 4-2 7-4 9-8s3-7 2-11c-2-5-4-8-8-10l-81-47c-4-2-8-3-12-1-4 1-7 3-9 7-5 7-2 17 5 21z m-319 260c0 9 7 16 16 16s16-7 16-16v-94c0-8-7-15-16-15-9 0-16 7-16 15l0 94 0 0z m-303-287l-81 47c-8 4-10 14-6 21 2 4 5 7 10 8 1 0 2 0 4 0 2 0 5-1 7-2l82-47c3-2 6-5 7-9 1-4 1-9-2-12s-5-7-9-7-8-1-12 1z m23-350c-1-4-4-7-7-9l-82-47c-3-2-7-3-11-2-5 1-8 4-10 7-4 8-2 17 6 22l81 47c2 1 5 2 8 2 1 0 2 0 4-1 4-1 7-4 9-7s3-8 2-12z m312-269c0-9-7-16-16-16-9 0-16 7-16 16v94c0 8 7 15 16 15 9 0 16-7 16-15v-94z m-16 141c-172 0-312 140-312 312s140 313 312 313 313-141 313-313-141-312-313-312z m406 78c-2-4-6-7-10-8-4-1-8 0-12 2l-81 47c-7 4-10 14-5 21 2 4 5 6 9 7 1 1 3 1 4 1 3 0 6-1 8-2l81-47c4-2 6-6 7-10 2-4 1-8-1-11z" horiz-adv-x="1000" />

<glyph glyph-name="twitter-logo" unicode="&#xe810;" d="M883 627c45 28 74 65 89 113-44-23-87-39-131-48-39 42-88 64-147 64-58 0-107-21-147-60-40-40-60-88-60-145 0-17 2-32 7-45-171 5-313 76-424 213-19-34-29-68-29-103 0-72 31-129 92-171-35 2-66 11-92 26 0-52 16-95 46-133 30-38 70-62 117-72-17-4-35-6-54-6-17 0-30 1-37 4 13-42 37-76 72-102 35-26 75-40 119-41-74-58-158-87-254-87-23 0-40 0-50 2 94-61 199-92 315-92 119 0 224 30 316 91 91 60 158 134 202 221 43 86 65 177 65 271v26c42 32 76 68 102 107-38-16-77-27-117-33z" horiz-adv-x="1000" />

<glyph glyph-name="vk" unicode="&#xe811;" d="M995 120c-1 3-3 5-4 7-17 31-50 69-99 115l-1 1-1 0 0 1h-1c-22 21-36 35-42 42-11 14-13 28-7 43 4 10 20 33 47 68 14 18 25 33 34 44 60 80 86 131 78 153l-3 5c-3 3-8 6-17 9-8 3-19 3-33 1l-150-1c-2 1-6 1-10 0-5-1-7-2-7-2l-3-1-2-2c-1-1-3-2-5-5-3-3-4-6-6-9-16-42-35-81-55-117-13-22-25-40-36-56-11-16-20-28-27-35-7-8-14-14-20-18-6-5-10-6-13-6-3 1-6 2-9 2-5 3-9 8-12 13-3 5-5 12-6 20-1 9-1 16-2 21 0 6 0 15 1 25 0 11 0 18 0 22 0 13 0 28 1 43 1 16 1 28 1 37 1 9 1 19 1 29s-1 18-2 23c-1 6-3 12-5 17-3 5-6 9-11 12-5 3-11 6-18 7-18 5-41 7-70 7-64 1-106-3-124-12-8-4-14-9-20-16-6-8-7-12-3-12 21-3 36-11 45-23l3-6c2-5 5-12 7-24 2-11 4-24 5-38 1-25 1-47 0-65-2-18-4-32-5-42-2-10-4-18-7-25-3-6-6-10-7-11-1-2-1-2-2-3-5-1-9-2-14-2-5 0-11 2-18 7-7 5-14 11-22 20-7 9-15 20-25 36-9 15-19 33-29 54l-8 15c-5 10-13 24-22 42-9 19-17 37-24 54-2 8-6 13-12 17l-3 1c-1 2-4 3-8 5-4 1-8 3-12 3l-143-1c-14 0-24-3-29-10l-2-3c-1-2-2-4-2-8 0-4 1-9 3-14 21-49 44-96 68-142 25-45 46-82 64-110 18-27 36-54 55-78 19-25 31-41 37-48 6-7 11-12 15-15l13-13c8-8 20-18 36-30 17-11 34-23 54-34 20-11 42-21 68-28 26-7 52-10 76-8h60c12 1 22 5 28 11l2 3c1 2 3 5 4 9 1 5 2 10 2 15-1 15 1 28 3 40 3 12 6 21 9 27 3 6 7 11 11 16 4 4 7 6 9 7 2 1 3 2 4 2 9 3 18 0 30-8 11-8 21-18 31-30 10-12 22-26 36-41 14-15 26-26 36-33l11-6c7-4 16-8 27-12 11-3 21-4 29-2l133 2c14 0 24 2 31 6 7 5 12 9 13 15 2 5 2 11 0 17-1 7-2 11-3 14z" horiz-adv-x="1000" />

<glyph glyph-name="facebook-letter-logo" unicode="&#xe812;" d="M368 656c0-25 0-137 0-137h-101v-169h101v-500h207v500h139c0 0 13 81 19 169-18 0-157 0-157 0s0 98 0 115c0 18 22 41 44 41 23 0 70 0 113 0 0 23 0 102 0 175-58 0-124 0-153 0-218 0-212-168-212-194z" horiz-adv-x="1000" />

<glyph glyph-name="arrow-r" unicode="&#xe814;" d="M660 350c0-6-4-10-10-10h-608c-5 0-9 4-9 10s4 10 9 10h608c6 0 10-4 10-10z m0 0l0 0c0-2-2-6-2-8l-243-240c-3-4-9-4-13 0s-4 10 0 13l235 235-235 235c-4 4-4 9 0 13s10 4 13 0l241-240c4-2 4-6 4-8z" horiz-adv-x="1000" />

<glyph glyph-name="analytics" unicode="&#xe815;" d="M626 713h-252c-9 0-16-7-16-16s7-16 16-16h252c9 0 16 8 16 16 0 9-7 16-16 16z m-42-63h-168c-9 0-16-7-16-16s7-16 16-16h168c9 0 16 7 16 16s-7 16-16 16z m-21-295h-126c-9 0-16-7-16-15s7-16 16-16h126c9 0 16 7 16 16s-7 15-16 15z m358 495h-842c-19 0-37-10-48-26-11-16-13-36-6-54l366-884c9-22 30-36 54-36h110c24 0 45 14 54 36l366 884c7 18 5 38-6 54-11 16-29 26-48 26z m-341-952c-4-10-14-16-24-16h-111c-11 0-21 6-24 16l-50 120h221 32 6l-50-120z m63 152h-51l0 0h-235l-74 179h396 29 9l-74-179z m87 211h-51l0 0h-409l-91 221h625l0 0h17l-91-221z m215 521l-111-269h-50l0 0h-618l-111 269c-4 8-3 17 2 25s13 11 22 11h842c9 0 17-4 22-11 5-8 6-17 2-25z m-392-627h-106c-8 0-16-7-16-15s8-16 16-16h106c8 0 15 7 15 16 0 8-7 15-15 15z m52 263h-210c-9 0-16-7-16-15s7-16 16-16h210c9 0 16 7 16 16 0 8-7 15-16 15z m-84-452h-42c-9 0-16-7-16-16s7-16 16-16h42c9 0 16 7 16 16 0 9-7 16-16 16z" horiz-adv-x="1000" />

<glyph glyph-name="apple" unicode="&#xe816;" d="M930 148v18l-8 5c-79 42-116 102-116 182 0 68 30 126 84 165l21 10-14 18c-35 44-95 103-188 103-17 0-34-4-50-10 38 41 59 94 59 154 0 11 0 21-2 34v3 2l-1 5c-2 3-4 9-9 11s-9 3-14 1c-93-26-191-100-191-229 0-8 0-15 1-24-16 4-29 12-43 20-25 14-51 30-91 30-177 0-300-161-300-305 0-79 24-216 94-342 55-98 118-149 184-149 25 0 50 9 78 17 28 13 59 23 91 23 26 0 52-10 79-19s54-19 82-19c138 0 256 173 256 282 0 3-2 7-2 10 0 2 0 2 0 4z m-248 661c1-7 1-12 0-17 0-120-90-172-146-193-2 8-2 15-2 21 0 101 74 163 148 189z m215-668c0-2 0-3 0-5 0-132-137-248-221-248-23 0-47 9-72 18-30 10-59 21-91 21-39 0-73-12-103-25-23-8-46-17-63-17-67 0-121 70-153 130-66 121-91 250-91 326 0 159 140 270 265 270 30 0 50-13 75-27s49-28 84-28c46 0 83 18 114 34 26 12 48 23 70 23 69 0 116-37 149-76-56-44-87-108-87-184 0-91 40-159 124-207 0-1 0-3 0-5z" horiz-adv-x="1000" />

<glyph glyph-name="archer-with-bow" unicode="&#xe817;" d="M371 589c72 0 130 59 130 131 0 72-58 130-130 130-72 0-131-58-131-130 0-72 59-131 131-131z m0 216c47 0 85-38 85-85 0-48-38-86-85-86-47 0-86 38-86 86 0 47 39 85 86 85z m557-261c0 0 0 0 1 0 0 1 0 1 1 2 0 0 0 0 0 0 0 1 1 1 1 2 0 0 0 0 0 0 0 1 1 1 1 2 0 0 0 0 0 1 0 0 0 1 0 1 1 1 1 1 1 1 0 1 0 1 0 2 0 0 0 0 0 0 0 1 0 2 0 3 0 1 0 2 0 2 0 1 0 1 0 1 0 1 0 1 0 2 0 0 0 0-1 0 0 1 0 2 0 2 0 0 0 1 0 1 0 0-1 1-1 1 0 1 0 1 0 1 0 1-1 1-1 1 0 1 0 1 0 1-1 1-1 1-1 2-1 0-1 0-1 0 0 1-1 1-1 2-1 0-1 0-1 0 0 1-1 1-1 1 0 0 0 1 0 1l-55 42c-9 8-23 6-31-4-8-10-6-24 4-31l3-3h-56c-9 121-82 226-188 265-12 4-24-2-29-13-4-12 2-25 14-29 88-33 149-121 157-223h-489c-52 0-97-3-129-10-16-4-59-14-59-45 0-32 44-41 60-44 29-6 68-10 114-11-3-25-3-54-3-90 0-79 10-138 50-168l-50-300-56-18c-12-4-18-17-15-28 3-10 12-16 22-16 2 0 4 0 7 1l69 22c8 3 14 10 15 18l50 302c12-3 26-4 41-4 13 0 24 1 35 3l-12-297c-1-10 6-19 15-22l70-22c2-1 4-1 7-1 9 0 18 6 21 16 4 11-3 24-15 28l-53 17 12 299c42 29 53 89 53 170 0 36-1 67-4 92 51-19 117-32 182-32 13 0 26 1 39 2-27-60-75-107-134-129-12-4-18-17-14-29 4-9 12-14 21-14 3 0 6 0 8 1 84 31 147 102 174 190 0 1 0 2 1 3 6 23 11 47 13 71h56l-3-2c-10-7-12-22-4-31 4-6 11-9 18-9 4 0 9 2 13 5l55 42c0 0 0 0 0 0 0 1 1 1 1 2 0 0 0 0 1 0 0 0 1 1 1 2z m-794-19c22 5 60 10 121 10h7c-2-3-4-6-6-10-2-3-3-7-5-10-58 1-95 5-117 10z m289-280c-3-1-6-3-8-4-12-6-27-7-44-7-18 0-32 1-44 7-2 1-5 3-8 4-25 16-36 53-36 135 0 130 7 155 88 155 40 0 62-6 74-28 1-3 2-6 4-8 8-23 10-61 10-119 0-82-11-119-36-135z m314 244c-90-12-196 9-252 39-2 3-3 5-5 7h264c-1-15-3-31-7-46z" horiz-adv-x="1000" />

<glyph glyph-name="arrow" unicode="&#xe818;" d="M769 598l93-2 138 138-115 1-1 115-138-138 2-91-20-20c-78 70-182 114-295 114-239 0-433-194-433-432s194-433 433-433 432 194 432 433c0 113-44 217-116 295l20 20z m86 179l1-72 72-2-78-78-66 2c0 1-1 3-3 3-1 1-1 1-3 1l-1 66 78 80z m-20-494c0-222-180-403-402-403s-403 181-403 403 181 402 403 402c105 0 201-41 273-107l-284-284c-6-7-6-16 0-22 3-3 8-5 11-5 4 0 7 2 10 5l285 284c66-72 107-168 107-273z m-401-108c-57 0-103 46-103 103s46 103 103 103c56 0 103-46 103-103s-47-103-103-103z m0 181c-43 0-79-35-79-78s36-78 79-78c43 0 78 35 78 78s-35 78-78 78z m0-276c-109 0-198 89-198 198s89 198 198 198 198-89 198-198-89-198-198-198z m0 371c-96 0-173-78-173-173 0-96 77-173 173-173 95 0 173 77 173 173 0 95-78 173-173 173z m0-495c-178 0-322 145-322 322 0 177 144 321 322 321 177 0 321-144 321-321 0-177-144-322-321-322z m0 619c-164 0-297-133-297-297 0-164 133-297 297-297 163 0 296 133 296 297 0 163-133 297-296 297z" horiz-adv-x="1000" />

<glyph glyph-name="book" unicode="&#xe819;" d="M869 590h-609c-56 0-102 46-102 103 0 56 46 102 102 102h610c15 0 27 13 27 28 0 15-12 27-27 27h-610c-86 0-157-71-157-157v-686c0-86 71-157 157-157h610c15 0 27 12 27 27v686c0 15-12 27-28 27z m-27-685h-582c-56 0-102 46-102 102v566c27-23 63-38 102-38h582l0-630 0 0z m-573 813c-15 0-27-13-27-28s12-27 27-27h515c15 0 27 12 27 27s-12 28-27 28h-515z m96-693c4-1 7-2 10-2 11 0 22 7 25 18l34 93h128c1 0 3 0 4 1l33-94c4-11 15-18 26-18 3 0 6 1 9 2 14 5 22 21 17 35l-125 350 0 0c-1 1-1 1-1 2-1 1-1 1-1 1 0 1 0 1-1 2 0 0 0 0 0 1-1 0-1 1-1 1 0 0-1 1-1 1 0 0 0 1-1 1 0 0 0 1-1 1s-1 1-1 1c0 0-1 0-1 1 0 0-1 0-1 1 0 0-1 0-1 0 0 1-1 1-1 1 0 1-1 1-1 1s-1 0-2 1c0 0-1 0-2 1l0 0h0c-1 0-2 0-3 0 0 0 0 0-1 0 0 1-1 1-1 1-1 0-1 0-2 0 0 0-1 0-1 0s-1 0-1 0c-1 0-1 0-2 0 0 0-1 0-1 0-1 0-1 0-1 0-1 0-1 0-2-1 0 0-1 0-1 0-1 0-2 0-2 0h-1l0 0c0-1-1-1-2-1 0-1-1-1-1-1-1 0-1 0-1-1-1 0-1 0-2-1 0 0-1 0-1 0 0-1-1-1-1-1 0 0-1-1-1-1 0 0 0-1-1-1s0-1-1-1c0 0 0-1-1-1 0 0 0-1-1-1 0 0 0-1 0-1-1 0-1-1-1-1 0-1-1-1-1-1 0-1 0-1 0-2-1 0-1-1-1-2l0 0-126-350c-4-14 3-30 17-35z m135 294l46-130h-93l47 130z" horiz-adv-x="1000" />

<glyph glyph-name="conversation" unicode="&#xe81a;" d="M413 9c0 0-1 0-1 0l-58 15c-5 1-9 4-10 5l0 32c0 0 1 0 1 0 20 24 31 55 31 87v24c20 65 5 121-2 137 0 0 0 1 0 1 0 0 0 0 0 1 0 0 0 0 0 0-1 0-1 1-1 1 0 0 0 0 0 1 0 0 0 0 0 0-1 0-1 1-1 1 0 0 0 0 0 0-1 0-1 1-1 1 0 0 0 0 0 0-1 0-1 0-1 1 0 0-1 0-1 0 0 0 0 0 0 1-1 0-1 0-1 0 0 0 0 0-1 0 0 1 0 1-1 1 0 0 0 0 0 0 0 0-1 0-1 0 0 0 0 0 0 0-1 0-1 1-1 1 0 0-1 0-1 0 0 0 0 0-1 0 0 0 0 0 0 0-1 0-1 0-1 0 0 0-1 0-1 0 0 0 0 0-1 0 0 0 0 0-1 0 0 0 0 0 0 0-15-2-33 2-53 7-34 8-73 17-107-7-33-3-56-31-56-68 0-27 12-76 15-86v-14c0-33 12-64 31-88l0-33c-1-2-5-4-10-6l-59-15c0 0 0 0 0 0-37-11-56-47-56-77v-17c0-19 16-34 36-34l166 0c1 0 1 0 1 0s0 0 0 0l167 0c20 0 36 15 36 34v17c0 30-19 66-56 77z m-147-32l-54 33c4 5 6 12 6 19l0 7c15-9 31-13 48-13 16 0 32 4 47 12l0-5c0-8 3-15 7-20l-54-33z m-78 180c0 15 7 38 12 52 70-1 124-18 144-26v-9c0 0 0 0 0 0v-26c0-27-10-52-26-70 0 0 0 0-1 0-13-15-32-24-51-24-42 0-78 45-78 97v6z m15 131c0 0 0 0 1 0 0 0 0 0 1 0 0 0 0 0 0 0 1 0 1 0 1 0 0 0 1 0 1 0 0 0 0 0 1 0 0 0 0 0 0 0 1 0 1 1 1 1 0 0 1 0 1 0 0 0 0 0 1 0 0 1 0 1 0 1 1 0 1 0 1 0 0 0 1 0 1 1 0 0 0 0 0 0 23 19 53 12 85 4 17-4 34-8 51-8 4-15 8-42 4-74-26 9-85 27-164 27 0 0 0 0 0 0-1 0-1 0-1 0-1 0-1 0-1 0 0 0-1 0-1 0 0 0 0 0-1 0 0 0 0 0 0 0-1 0-1 0-1 0 0 0 0 0-1 0 0-1 0-1-1-1 0 0 0 0 0 0 0 0-1 0-1-1 0 0 0 0 0 0-1 0-1 0-1 0 0-1-1-1-1-1 0 0 0 0 0 0-1-1-1-1-1-1 0 0-1 0-1 0 0-1 0-1 0-1 0 0-1 0-1 0 0-1 0-1 0-1 0 0 0-1-1-1 0 0 0 0 0 0 0-1 0-1 0-1 0 0-1-1-1-1 0 0 0 0 0 0-1 7-2 14-2 19 1 18 9 38 31 38z m-104-376c-3 0-5 2-5 3v17c0 18 11 40 33 47l53 13 70-42v-38l-151 0z m339 3c0-1-2-3-5-3l-152 0v38l71 42 52-13c22-7 34-29 34-47l0-17 0 0z m443 94c0 0 0 0 0 0l-58 15c-5 1-9 4-10 5l0 32c0 0 0 0 0 0 20 24 31 55 31 87v24c20 65 6 121-1 137 0 0 0 1 0 1 0 0 0 0 0 1 0 0-1 0-1 0 0 0 0 1 0 1 0 0 0 0-1 1 0 0 0 0 0 0 0 0 0 1-1 1 0 0 0 0 0 0 0 0 0 1 0 1-1 0-1 0-1 0 0 0 0 0-1 1 0 0 0 0 0 0 0 0-1 0-1 1 0 0 0 0 0 0-1 0-1 0-1 0 0 1-1 1-1 1 0 0 0 0-1 0 0 0 0 0 0 0-1 0-1 0-1 0 0 0-1 1-1 1 0 0 0 0-1 0 0 0 0 0 0 0 0 0-1 0-1 0 0 0 0 0-1 0 0 0 0 0-1 0 0 0 0 0 0 0-1 0-1 0-1 0 0 0 0 0 0 0-15-2-34 2-53 7-35 8-74 17-108-7-32-3-56-31-56-68 0-27 13-76 16-86v-14c0-33 11-64 30-88l0-33c-1-2-5-4-10-6l-58-15c0 0 0 0 0 0-37-10-57-47-57-77v-17c0-18 17-33 36-33l167 0c0 0 0 0 1 0 0 0 0 0 0 0l167 0c20 0 36 15 36 33v17c0 30-20 66-57 77z m-146-32l-55 33c4 5 7 12 7 19l0 7c15-9 31-13 48-13 16 0 32 4 47 12l0-5c0-8 2-15 7-20l-54-33z m-78 180c0 15 7 38 11 52 71-1 125-18 145-26v-9c0 0 0 0 0 0v-26c0-27-10-52-27-70 0 0 0 0 0 0-14-15-32-24-51-24-42 0-78 45-78 97v6z m15 131c0 0 0 0 0 0 1 0 1 0 1 0 1 0 1 0 1 0 0 0 1 0 1 0 0 0 0 0 1 0 0 0 0 0 0 0 1 0 1 0 1 0 0 0 1 1 1 1 0 0 0 0 1 0 0 0 0 0 0 0 1 1 1 1 1 1 0 0 1 0 1 0 0 0 0 0 1 1 0 0 0 0 0 0 23 19 53 12 84 4 17-4 35-8 52-8 4-15 8-42 4-74-26 9-86 27-164 27 0 0 0 0-1 0 0 0 0 0-1 0 0 0 0 0 0 0-1 0-1 0-1 0 0 0-1 0-1 0 0 0 0 0 0 0-1 0-1 0-1 0-1 0-1 0-1 0 0-1-1-1-1-1 0 0 0 0 0 0-1 0-1 0-1-1-1 0-1 0-1 0 0 0 0 0-1 0 0-1 0-1 0-1 0 0 0 0-1 0 0-1 0-1-1-1 0 0 0 0 0 0 0-1 0-1-1-1 0 0 0 0 0 0 0-1 0-1 0-1-1 0-1-1-1-1 0 0 0 0 0 0 0-1-1-1-1-1 0 0 0-1 0-1 0 0 0 0 0 0-1 7-2 14-2 19 0 18 8 38 31 38z m-105-376c-3 0-4 2-4 3v17c0 18 11 40 33 47l53 13 70-42v-38l-152 0z m339 3c0-1-1-3-4-3l-152 0v38l71 42 52-13c22-7 33-29 33-47v-17z m16 841h-313c-8 0-15-7-15-15s7-16 15-16h313c26 0 47-21 47-47v-219c0-25-21-46-47-46h-328c-9 0-16-7-16-16v-41l-51 52c-6 6-16 6-22 0-6-6-6-16 0-22l78-78c3-3 7-5 11-5 2 0 4 1 6 1 6 3 10 9 10 15v62h312c43 0 78 35 78 78v219c0 43-35 78-78 78z m-359-234v219c0 43-35 78-79 78h-406c-43 0-78-35-78-78v-219c0-43 35-78 78-78h219v-63c0-6 4-12 9-14 2-1 4-1 7-1 4 0 8 1 11 4l73 74h87c44 0 79 35 79 78z m-32 0c0-26-21-47-47-47h-93c-4 0-9-2-11-4l-52-52v40c0 9-7 16-15 16h-235c-26 0-47 21-47 47v219c0 25 21 47 47 47h406c26 0 47-22 47-47v-219z m-437 187h47c8 0 15 7 15 16s-7 16-15 16h-47c-9 0-16-7-16-16s7-16 16-16z m375 32h-266c-8 0-15-7-15-16s7-16 15-16h266c8 0 15 7 15 16s-7 16-15 16z m0-63h-375c-9 0-16-7-16-15s7-16 16-16h375c8 0 15 7 15 16s-7 15-15 15z m0-62h-47c-9 0-16-7-16-16s7-16 16-16h47c8 0 15 7 15 16s-7 16-15 16z m-375-32h265c9 0 16 7 16 16s-7 16-16 16h-265c-9 0-16-7-16-16s7-16 16-16z m375-31h-375c-9 0-16-7-16-15s7-16 16-16h375c8 0 15 7 15 16s-7 15-15 15z m140 94h47c9 0 16 7 16 16s-7 15-16 15h-47c-8 0-15-7-15-15s7-16 15-16z m297 0c9 0 16 7 16 16s-7 15-16 15h-187c-9 0-16-7-16-15s7-16 16-16h187z m-297-63h297c9 0 16 7 16 16s-7 16-16 16h-297c-8 0-15-7-15-16s7-16 15-16z m297-31h-47c-8 0-15-7-15-15s7-16 15-16h47c9 0 16 7 16 16s-7 15-16 15z m-297-31h188c9 0 16 7 16 16s-7 15-16 15h-188c-8 0-15-7-15-15s7-16 15-16z m0-63h297c9 0 16 7 16 16s-7 16-16 16h-297c-8 0-15-7-15-16s7-16 15-16z" horiz-adv-x="1000" />

<glyph glyph-name="cooperate" unicode="&#xe81b;" d="M988 529l0 0 0 0z m-258 273c-7 6-16 10-25 10s-19-4-26-10l-11-12c-15-15-34-25-55-28l-18-2c-22-4-43-12-60-26l-52 52c-13 13-31 21-50 21h-65c-7 0-13 3-19 8-10 10-23 15-38 15s-27-5-38-15l-244-245c-23-22-23-59 0-81 3-4 6-9 7-15l9-60c2-15 9-29 20-40l54-55-9-8c-31-32-31-83 0-114 16-16 36-24 57-24 4 0 8 0 13 1-4-24 3-50 22-69s45-26 69-23c0-4-1-8-1-12 0-22 9-42 24-57s36-24 57-24c4 0 8 1 12 1-4-24 4-50 23-69 15-15 36-23 57-23 18 0 37 6 52 19 15-13 34-20 53-20 20 0 40 8 55 23l0 0 3 3c18 18 25 43 22 67 4 0 8-1 12-1 20 0 40 8 55 23l3 3c18 18 25 43 22 67 4-1 8-1 11-1 21 0 41 8 56 23l3 2c18 19 25 44 22 68 4-1 8-1 11-1 21 0 41 8 56 23l0 0 2 2c30 30 31 77 4 108l22 22c24 24 37 56 37 90v4c0 31 12 60 34 82 7 7 10 16 10 25l0 0c0 9-3 18-10 25l-248 248z m-644-406c-6 6-10 14-11 22l-9 60c-1 12-7 24-16 33-10 10-10 27 0 37l245 244c4 4 10 7 16 7 6 1 12-2 17-6 10-11 24-17 39-17 22 0 49 0 66 0 11 0 21-4 28-11l226-226c20-20 20-52 0-72-19-19-50-18-69 1l-154 154c-12 12-30 12-42 0l-117-117-163-164-56 55z m357-467c-13 0-26 5-35 15-10 9-15 21-15 34 0 12 4 23 11 31 2-3 4-5 7-8l62-62c-9-6-19-10-30-10z m141 15l-3-2c-18-18-49-18-67 0l-81 81c-19 19-19 49 0 68l2 2c10 9 22 14 34 14s25-5 34-14l81-81c18-18 18-49 0-68z m91 92l-2-2 0 0c-19-19-49-19-67 0l-81 81c-19 19-19 49 0 67l2 3c9 9 21 13 34 13 12 0 24-4 33-13l81-81c19-19 19-49 0-68z m92 92l-2-2c-19-19-49-19-67 0l-81 81c-9 9-14 21-14 34s4 24 14 33l2 3c9 9 21 13 34 13 12 0 24-4 33-13l81-81c19-19 19-49 0-68z m92 92l-2-2c-19-19-49-19-68 0l-81 81c-18 18-18 49 0 67l3 2c9 10 21 14 33 14s25-4 34-14l81-80c19-19 19-49 0-68z m97 306c-26-28-44-62-44-101v-7c0-25-10-50-28-68l-21-21-63 62c-30 31-80 31-111 0l-2-2c-19-19-26-44-22-68-24 3-50-4-68-22l-1-2c-14-14-23-32-24-52-1-5 0-11 1-16-24 3-50-4-68-22l-2-2c-18-19-26-44-22-68-24 3-49-4-68-22l-2-2c-20-21-27-49-21-75-1-1-3-2-4-3-21-21-58-19-76 7-4 6-6 12-7 19-3 17 2 32 13 44l85 85c6 6 6 16 0 22-6 6-16 5-22 0l-85-85c-19-20-51-20-70 1-18 19-18 49 0 68l0 1 86 85c6 6 6 16 0 22s-16 6-22 0l-85-86c-12-11-28-16-44-13-7 1-13 4-19 8-14 9-22 24-22 41 0 13 5 25 15 35l194 194 116 116 152-152c31-31 84-32 115-1 16 16 24 36 24 59-1 21-10 41-25 56l-151 151c12 9 27 15 42 17l18 2c28 4 53 17 73 37l12 12c1 1 2 1 3 1 1 0 2 0 3-1l247-248c1-1 1-2 1-3 0-1-1-2-1-3z" horiz-adv-x="1000" />
</font>
</defs>
</svg>
