<?xml version="1.0" encoding="utf-8"?>
<!-- Generator: Adobe Illustrator 21.0.2, SVG Export Plug-In . SVG Version: 6.00 Build 0)  -->
<svg version="1.1" id="Layer_1" xmlns="http://www.w3.org/2000/svg" xmlns:xlink="http://www.w3.org/1999/xlink" x="0px" y="0px"
	 viewBox="0 0 512 512" style="enable-background:new 0 0 512 512;" xml:space="preserve">
<style type="text/css">
	.st0{fill:#FFFFFF;}
	.st1{fill:#E60329;}
</style>
<path d="M505.7,164.3L505.7,164.3L505.7,164.3z"/>
<path class="st0" d="M304.4,340.6c-4.8-4.8-11-7.1-17.3-7.1c-6.2,0-12.6,2.3-17.3,7.1l-1.1,1.1c-9.6,9.6-9.6,25.1,0,34.6l41.4,41.4
	c9.6,9.6,25.1,9.6,34.6,0l0,0l1.1-1.1c9.6-9.6,9.6-25.1,0-34.6L304.4,340.6z"/>
<path class="st0" d="M206.8,430.5c-3.6,4.5-5.5,10-5.5,15.7c0,6.7,2.6,13.1,7.4,17.9c4.8,4.8,11.1,7.4,17.9,7.4
	c5.7,0,11-1.9,15.4-5.3l-31.7-31.7C209.1,433.3,207.9,431.9,206.8,430.5z"/>
<path class="st0" d="M155.9,176.8l60-60c6-6,15.5-6,21.5,0l78.9,78.9c9.8,9.8,25.6,9.9,35.4,0.3c10.2-9.9,9.9-26.5-0.1-36.5
	L235.9,43.7c-3.7-3.7-8.8-5.9-14.2-5.9c-8.8,0-22.9,0-34,0c-7.6,0-14.7-3.3-20.2-8.7c-2.3-2.2-5.5-3.5-8.7-3.3c-3,0.1-5.9,1.6-8,3.7
	l-125,125.3c-5.2,5.2-5.3,13.5-0.2,18.7c4.5,4.7,7.6,10.4,8.5,16.8l4.4,30.7c0.6,4.3,2.6,8.3,5.7,11.3l28.1,28.1L155.9,176.8z"/>
<path class="st0" d="M257.4,387.6c-4.8-4.8-11-7.1-17.3-7.1s-12.6,2.3-17.3,7.1l-1.1,1.1c-9.6,9.6-9.6,25.1,0,34.6l41.4,41.4
	c9.6,9.6,25.1,9.6,34.6,0l1.1-1.1c9.6-9.6,9.6-25.1,0-34.6L257.4,387.6z"/>
<path class="st0" d="M351.4,293.6c-4.8-4.8-11-7.1-17.3-7.1c-6.2,0-12.6,2.3-17.3,7.1l-1.1,1.1c-4.6,4.6-7.2,10.7-7.2,17.3
	c0,6.5,2.5,12.7,7.2,17.3l41.4,41.4c9.6,9.6,25.1,9.6,34.6,0l1.1-1.1c9.6-9.6,9.6-25.1,0-34.6L351.4,293.6z"/>
<path class="st0" d="M362.4,35.9c-0.6-0.6-1.2-0.7-1.6-0.7s-1.1,0.1-1.6,0.7l-6,6.1c-10,10.2-23,16.7-37.1,18.6l-9.2,1.3
	c-7.8,1.1-15.2,4.1-21.7,8.7l77.3,77.3c7.7,7.7,12.4,18,12.6,28.9c0.2,11.2-4,21.8-11.9,29.8c-16,16.2-42.8,15.7-59.1-0.4
	l-77.7-77.7L167.1,188l-99.4,99.5c-4.8,4.8-7.4,11.1-7.4,17.9c0,8.3,4,15.9,10.9,20.9c2.8,2,6.1,3.4,9.7,4
	c8.4,1.5,16.7-1.1,22.5-6.9l43.6-43.6c3.1-3.1,8.1-3.1,11.2,0s3.1,8.1,0,11.2l-43.6,43.6l-0.4,0.4c-9,10-9.3,25.3,0,34.9
	c9.9,10.2,26.2,10.3,36.1,0.4l43.4-43.4c3.1-3.1,8.1-3.4,11.3-0.4c3.3,3.1,3.3,8.3,0.2,11.4l-43.6,43.6c-5.9,5.9-8.5,14-7,22.4
	c0.6,3.5,2,6.9,4,9.9c9.3,13.4,27.8,14.5,38.7,3.6c0.7-0.7,1.4-1.2,2.2-1.6c-3.2-13.3,0.3-27.8,10.6-38.2l1.1-1.1
	c9.4-9.4,22.3-13.2,34.6-11.4c-1.8-12.2,2-25.1,11.4-34.6l1.1-1.1c9.4-9.4,22.3-13.2,34.5-11.4c-0.4-2.6-0.5-5.5-0.4-8.2
	c0.6-10.2,5.1-19.6,12.3-26.8l0.6-0.6c9.4-9.4,22.3-13.2,34.6-11.4c-1.8-12.2,2-25.1,11.4-34.6l1.1-1.1c15.8-15.8,41.4-15.8,57.1,0
	l31.8,31.8l11.2-11.2c9.2-9.2,14.3-21.7,14.3-34.6v-3.7c0-19.5,8.8-37.5,22.1-51.8c0.5-0.5,0.6-1.1,0.6-1.5s-0.1-1.1-0.7-1.6
	L362.4,35.9z"/>
<path class="st0" d="M398.4,246.6c-4.8-4.8-11-7.1-17.3-7.1s-12.6,2.3-17.3,7.1l-1.1,1.1c-9.6,9.6-9.6,25.1,0,34.6l41.4,41.4
	c9.6,9.6,25.1,9.6,34.6,0l1.1-1.1c9.6-9.6,9.6-25.1,0-34.6L398.4,246.6z"/>
<path class="st1" d="M373.6,24.7c-3.4-3.4-8-5.3-12.9-5.3s-9.5,2-12.9,5.4l-6,6.1c-7.5,7.6-17.4,12.6-28,14.1l-9.2,1.3
	c-11.2,1.6-21.9,6.1-30.7,13.1l-26.8-26.8c-6.7-6.7-15.8-10.5-25.4-10.5h-33.3c-3.6,0-6.9-1.4-9.5-3.9c-5.2-5.2-12.1-8.1-19.5-8.1
	S145.2,12.7,140,18L14.6,143.5c-11.4,11.4-11.4,30.1,0,41.5c2,2,3.4,4.7,3.8,7.6l4.4,30.7c1.1,7.6,4.7,14.8,10.2,20.3l28,28.1
	l-4.5,4.5c-16.1,16.1-16.1,42.2,0,58.3c7.8,7.8,18.2,12.1,29.1,12.1c2.1,0,4.2-0.2,6.3-0.5c-2,12.5,2,25.8,11.6,35.4
	s22.8,13.5,35.4,11.6c-0.3,2-0.5,4.2-0.5,6.3c0,11,4.3,21.4,12.1,29.1s18.2,12.1,29.1,12.1c2.1,0,4.2-0.2,6.3-0.5
	c-2,12.5,2,25.8,11.6,35.4c8,8,18.5,12,29.1,12c9.6,0,19.1-3.3,26.8-10c7.6,6.8,17.3,10.2,26.9,10.2c10.3,0,20.7-3.9,28.6-11.8l0,0
	l1.1-1.1c9.4-9.4,13.2-22.3,11.4-34.6c2,0.3,4,0.5,6,0.5c10.3,0,20.7-3.9,28.6-11.8l1.1-1.1c9.4-9.4,13.2-22.3,11.4-34.6
	c2,0.3,4,0.5,6,0.5c10.3,0,20.7-3.9,28.6-11.8l1.1-1.1c9.4-9.4,13.2-22.3,11.4-34.6c2,0.3,4,0.5,6,0.5c10.3,0,20.7-3.9,28.6-11.8
	l0,0l1.1-1.1c15.2-15.2,15.7-39.5,1.7-55.3l11.3-11.3c12.3-12.3,19-28.6,19-45.9V219c0-15.8,6.1-30.6,17.4-41.9
	c3.5-3.5,5.3-8.2,5.3-12.8l0,0c0-4.7-1.8-9.3-5.3-12.8L373.6,24.7z M44.1,232.4c-3-3-5.1-7-5.7-11.3L34,190.4
	c-0.9-6.3-4-12.1-8.5-16.8c-5-5.3-5-13.6,0.2-18.7L151,29.6c2.1-2.1,5-3.5,8-3.7c3.3-0.2,6.4,1.1,8.7,3.3c5.5,5.4,12.5,8.7,20.2,8.7
	c11,0,25.2,0,34,0c5.3,0,10.3,2.1,14.2,5.9l115.7,115.7c10,10,10.2,26.6,0.1,36.5c-9.9,9.6-25.7,9.5-35.4-0.3l-78.9-78.9
	c-6-6-15.5-6-21.5,0l-60,60l-83.6,83.6L44.1,232.4z M226.7,471.5c-6.7,0-13.1-2.6-17.9-7.4c-4.8-4.8-7.4-11.1-7.4-17.9
	c0-5.8,2-11.3,5.5-15.7c1.1,1.4,2.2,2.7,3.5,4l31.7,31.7C237.7,469.7,232.3,471.5,226.7,471.5z M298.8,463.6l-1.1,1.1
	c-9.6,9.6-25.1,9.6-34.6,0l-41.4-41.4c-9.6-9.6-9.6-25.1,0-34.6l1.1-1.1c4.8-4.8,11-7.1,17.3-7.1s12.6,2.3,17.3,7.1l41.4,41.4
	C308.4,438.5,308.4,454.1,298.8,463.6z M345.8,416.6l-1.2,1.2l0,0c-9.6,9.6-25.1,9.6-34.6,0l-41.4-41.4c-9.6-9.6-9.6-25.1,0-34.6
	l1.1-1.1c4.8-4.8,11-7.1,17.3-7.1c6.2,0,12.6,2.3,17.3,7.1l41.4,41.4C355.4,391.5,355.4,407,345.8,416.6z M392.8,369.6l-1.1,1.1
	c-9.6,9.6-25.1,9.6-34.6,0l-41.4-41.4c-4.6-4.6-7.2-10.7-7.2-17.3s2.5-12.7,7.2-17.3l1.1-1.1c4.8-4.8,11-7.1,17.3-7.1
	c6.2,0,12.6,2.3,17.3,7.1l41.4,41.4C402.3,344.6,402.3,360.1,392.8,369.6z M439.8,322.6l-1.1,1.1c-9.6,9.6-25.1,9.6-34.6,0
	l-41.4-41.4c-9.6-9.6-9.6-25.1,0-34.6l1.1-1.1c4.8-4.8,11-7.1,17.3-7.1s12.6,2.3,17.3,7.1l41.4,41.4
	C449.4,297.5,449.4,313,439.8,322.6z M489.2,165.7c-13.3,14.3-22.1,32.2-22.1,51.8v3.7c0,13-5.2,25.5-14.3,34.6L441.6,267
	l-31.8-31.8c-15.8-15.8-41.4-15.8-57.1,0l-1.1,1.1c-9.4,9.4-13.2,22.3-11.4,34.6c-12.2-1.8-25.1,2-34.6,11.4L305,283
	c-7.1,7.1-11.7,16.7-12.3,26.8c-0.2,2.7,0,5.6,0.4,8.2c-12.2-1.8-25.1,2-34.5,11.4l-1.1,1.1c-9.4,9.4-13.2,22.3-11.4,34.6
	c-12.2-1.8-25.1,2-34.6,11.4l-1.1,1.1c-10.3,10.3-13.9,24.9-10.6,38.2c-0.8,0.4-1.6,0.9-2.2,1.6c-10.9,10.9-29.5,9.8-38.7-3.6
	c-2-2.9-3.4-6.3-4-9.9c-1.5-8.4,1.2-16.5,7-22.4l43.6-43.6c3.1-3.1,3.1-8.3-0.2-11.4c-3.1-3-8.2-2.6-11.3,0.4l-43.4,43.4
	c-10,10-26.4,9.9-36.1-0.4c-9.3-9.7-9-25.1,0-34.9l0.4-0.4l43.6-43.6c3.1-3.1,3.1-8.1,0-11.2s-8.1-3.1-11.2,0l-43.6,43.6
	c-5.9,5.9-14.1,8.5-22.5,6.9c-3.4-0.6-6.7-2-9.7-4c-7-4.9-10.9-12.6-10.9-20.9c0-6.7,2.6-13.1,7.4-17.9l99.4-99.4l59.5-59.5
	l77.7,77.7c16.1,16.1,42.9,16.6,59.1,0.4c7.8-7.9,12.1-18.5,11.9-29.8c-0.2-10.8-4.9-21.2-12.6-28.9l-77.3-77.3
	c6.3-4.6,13.9-7.6,21.7-8.7l9.2-1.3c14.1-2,27-8.6,37.1-18.6l6-6.1c0.5-0.6,1.2-0.7,1.6-0.7c0.5,0,1.1,0.1,1.6,0.7l126.5,126.7
	c0.5,0.5,0.7,1.2,0.7,1.6C489.8,164.7,489.7,165.3,489.2,165.7z"/>
</svg>
