<?xml version="1.0" encoding="utf-8"?>
<!-- Generator: Adobe Illustrator 21.0.2, SVG Export Plug-In . SVG Version: 6.00 Build 0)  -->
<svg version="1.1" id="Layer_1" xmlns="http://www.w3.org/2000/svg" xmlns:xlink="http://www.w3.org/1999/xlink" x="0px" y="0px"
	 viewBox="0 0 512 512" style="enable-background:new 0 0 512 512;" xml:space="preserve">
<style type="text/css">
	.st0{fill:#E60329;}
</style>
<g>
	<g>
		<g>
			<path class="st0" d="M437,153.6h-0.8c-5.9,0-10.7,4.8-10.7,10.7s4.8,10.7,10.7,10.7h0.8c5.9,0,10.7-4.8,10.7-10.7
				S442.9,153.6,437,153.6z"/>
			<path class="st0" d="M405.3,153.6h-128c-5.9,0-10.7,4.8-10.7,10.7s4.8,10.7,10.7,10.7h128c5.9,0,10.7-4.8,10.7-10.7
				S411.2,153.6,405.3,153.6z"/>
			<path class="st0" d="M405.3,253.6h-128c-5.9,0-10.7,4.8-10.7,10.7s4.8,10.7,10.7,10.7h128c5.9,0,10.7-4.8,10.7-10.7
				S411.2,253.6,405.3,253.6z"/>
			<path class="st0" d="M383.7,316.6c5.9,0,10.7-4.8,10.7-10.7s-4.8-10.7-10.7-10.7H309c-5.9,0-10.7,4.8-10.7,10.7
				c0,5.9,4.8,10.7,10.7,10.7L383.7,316.6L383.7,316.6z"/>
			<path class="st0" d="M277.3,316.6h0.8c5.9,0,10.7-4.8,10.7-10.7s-4.8-10.7-10.7-10.7h-0.8c-5.9,0-10.7,4.8-10.7,10.7
				C266.7,311.8,271.4,316.6,277.3,316.6z"/>
			<path class="st0" d="M459.6,96h-23.3l-81.5-81.5C345.5,5.2,333,0,319.6,0h0c-13.3,0-25.8,5.2-35.2,14.5L203,96H52.4
				C23.5,96,0,119.5,0,148.4v215.2C0,392.5,23.5,416,52.4,416h23.3l81.5,81.5c9.7,9.7,22.5,14.6,35.2,14.6
				c12.7,0,25.5-4.9,35.2-14.6L309,416h150.5c28.9,0,52.4-23.5,52.4-52.4V148.4C512,119.5,488.5,96,459.6,96z M299.5,29.6
				c5.3-5.3,12.5-8.3,20.1-8.3c7.6,0,14.8,2.9,20.1,8.3L406.1,96h-96.6l12.7-12.7l0.5-0.5c4.2-4.2,4.1-10.9,0-15.1
				c-4.2-4.2-10.9-4.1-15.1,0L279.4,96h-46.2L299.5,29.6z M212.5,482.4c-11.1,11.1-29.1,11.1-40.2,0L105.9,416h96.6l-13.2,13.2
				c-4.2,4.2-4.2,10.9,0,15.1c2.1,2.1,4.8,3.1,7.5,3.1c2.7,0,5.5-1,7.5-3.1l28.3-28.3h46.2L212.5,482.4z M490.7,363.6
				c0,17.1-13.9,31.1-31.1,31.1H52.4c-17.1,0-31.1-13.9-31.1-31.1V148.4c0-17.1,13.9-31.1,31.1-31.1h155c0,0,0,0,0,0h252.2
				c17.1,0,31.1,13.9,31.1,31.1L490.7,363.6L490.7,363.6z"/>
			<path class="st0" d="M188.7,239.7c0.8-3,1.5-6.6,2.2-10.8c0.2-1,0.4-2.4,0.7-3.9c2.3-12.1,4.4-24.8,1.6-34.1
				c-6.8-22.6-26-37.3-48.9-37.3c-23,0-42.2,14.6-48.9,37.3c-2.8,9.4-0.8,22,1.6,34.1c0.3,1.5,0.5,2.8,0.7,3.9
				c0.7,4.2,1.4,7.7,2.2,10.8c-22,14.7-35.3,39.4-35.3,66.3c0,5.9,4.8,10.7,10.7,10.7h138.3c5.9,0,10.7-4.8,10.7-10.7
				C224,279,210.7,254.4,188.7,239.7z M115.7,197c4.1-13.6,15-22.1,28.5-22.1c13.5,0,24.4,8.5,28.5,22.1c1.5,5.2-1,18.4-2.1,24
				c-0.3,1.7-0.6,3.3-0.8,4.4c-0.8,4.8-2,11.4-3.6,14.1c-0.7,1.1-1.6,1.8-5.3,4.1c-1.2,0.8-2.6,1.7-4.2,2.7
				c-8.6,4.9-16.5,4.9-25.1,0c-1.6-1.1-3-1.9-4.2-2.7c-3.6-2.3-4.6-3-5.3-4.1c-1.6-2.6-2.8-9.3-3.6-14.1c-0.2-1.2-0.5-2.7-0.8-4.4
				C116.7,215.4,114.1,202.2,115.7,197z M86.7,295.3c2.8-15.1,11.4-28.5,24.1-37.3c1.5,1.2,3.3,2.4,5.2,3.6c1.3,0.8,2.6,1.6,4,2.6
				l0.7,0.4c7.6,4.4,15.6,6.6,23.5,6.6h0c8,0,15.9-2.2,23.5-6.6l0.7-0.4c1.5-1,2.8-1.8,4-2.6c2-1.3,3.7-2.4,5.2-3.6
				c12.7,8.8,21.3,22.2,24.1,37.3H86.7z"/>
			<path class="st0" d="M213.3,337H75c-5.9,0-10.7,4.8-10.7,10.7c0,5.9,4.8,10.7,10.7,10.7h138.3c5.9,0,10.7-4.8,10.7-10.7
				C224,341.8,219.2,337,213.3,337z"/>
			<path class="st0" d="M437,337h-0.8c-5.9,0-10.7,4.8-10.7,10.7c0,5.9,4.8,10.7,10.7,10.7h0.8c5.9,0,10.7-4.8,10.7-10.7
				C447.6,341.8,442.9,337,437,337z"/>
			<path class="st0" d="M405.3,337h-128c-5.9,0-10.7,4.8-10.7,10.7c0,5.9,4.8,10.7,10.7,10.7h128c5.9,0,10.7-4.8,10.7-10.7
				C416,341.8,411.2,337,405.3,337z"/>
			<path class="st0" d="M277.3,216.7h64c5.9,0,10.7-4.8,10.7-10.7s-4.8-10.7-10.7-10.7h-64c-5.9,0-10.7,4.8-10.7,10.7
				C266.7,211.9,271.4,216.7,277.3,216.7z"/>
		</g>
	</g>
</g>
</svg>
