<?xml version="1.0" encoding="utf-8"?>
<!-- Generator: Adobe Illustrator 21.0.2, SVG Export Plug-In . SVG Version: 6.00 Build 0)  -->
<svg version="1.1" id="Слой_1" xmlns="http://www.w3.org/2000/svg" xmlns:xlink="http://www.w3.org/1999/xlink" x="0px" y="0px"
	 viewBox="0 0 1236 551" style="enable-background:new 0 0 1236 551;" xml:space="preserve">
<style type="text/css">
	.st0{fill:#FFFFFF;}
	.st1{fill:#97C100;}
</style>
<path class="st0" d="M371,204.3c-7.9-2.4-15.4-3.6-22.6-3.6c-8.4,0-15.1,1.5-20.2,4.6s-7.6,7.8-7.6,14.2s2.8,11.2,8.5,14.5
	s14.3,6.6,25.9,10c11,3.2,19.9,6.4,26.9,9.6s12.9,7.9,17.8,14.1s7.3,14.4,7.3,24.5c0,15-5.6,26.3-16.9,34.1
	c-11.3,7.8-25.3,11.7-42,11.7c-11.8,0-23.2-1.9-34.2-5.7c-11.1-3.8-20.4-9.2-28-16.2l10.5-20.3c6.6,6,14.7,10.8,24.4,14.4
	c9.7,3.6,19.1,5.4,28.3,5.4c9.2,0,16.6-1.7,22.1-5.1c5.6-3.4,8.4-8.6,8.4-15.6c0-7.2-2.9-12.6-8.8-16.2s-14.8-7.2-26.8-10.8
	c-10.6-3-19.2-6-25.9-9.1c-6.7-3.1-12.4-7.6-17.1-13.6s-7-13.8-7-23.3c0-14.8,5.4-25.8,16.2-33.2c10.8-7.4,24.2-11.1,40.4-11.1
	c9.6,0,19,1.3,28.3,4s17.3,6.3,24.1,10.9l-10.2,21.2C386.1,209.9,378.9,206.7,371,204.3z"/>
<path class="st0" d="M571.3,188.2c11.6,6.8,20.5,16.3,26.9,28.4c6.4,12.2,9.6,26.1,9.6,41.9c0,15.6-3.1,29.4-9.4,41.4
	c-6.3,12.1-15.2,21.4-26.6,28.1c-11.5,6.7-24.6,10-39.3,10c-13.4,0-25.1-2.8-35.3-8.4c-10.2-5.6-18.1-13.6-23.9-23.9v89.4h-27.8
	V178.9h27.8v31.4c5.8-10.4,13.7-18.3,23.8-23.9c10.1-5.6,21.7-8.4,34.9-8.4C546.6,178,559.7,181.4,571.3,188.2z M553.8,306.6
	c8.1-4.8,14.4-11.5,18.8-20c4.5-8.6,6.7-18.2,6.7-29c0-10.6-2.3-20.1-6.9-28.7c-4.6-8.6-10.9-15.3-18.8-20c-8-4.8-17.1-7.2-27.2-7.2
	c-10.2,0-19.3,2.4-27.4,7.2s-14.4,11.5-19,20c-4.6,8.6-6.9,18.1-6.9,28.7c0,11,2.3,20.7,6.9,29.2s10.9,15.1,19,19.9
	s17.2,7.2,27.4,7.2C536.6,313.8,545.7,311.4,553.8,306.6z"/>
<path class="st0" d="M696.6,187.1c9.6-5.9,20.9-8.9,34.1-9.1v26.9c-16.2-0.6-29.2,3.6-39.2,12.6s-15.7,21-17,36.2v83.5h-27.8V178.9
	h27.8V213C679.7,201.7,687,193,696.6,187.1z"/>
<rect x="760.9" y="178.9" class="st0" width="27.8" height="158.2"/>
<path class="st0" d="M974.5,194.3c10.6,10.9,15.9,25.9,15.9,45v97.8h-27.8v-90.3c0-13.4-3.7-23.8-11.2-31.3s-17.8-11.2-31-11.2
	c-14.2,0.2-25.7,4.7-34.5,13.6c-8.9,8.9-13.9,20.4-15.1,34.5v84.7H843V178.9h27.8v33.5c10.6-22.5,30.6-34,60.1-34.4
	C949.4,178,963.9,183.5,974.5,194.3z"/>
<path class="st0" d="M1180,178.9V321c0,15.2-3.3,28.4-10,39.8s-16.1,20.1-28.3,26.2c-12.2,6.1-26.3,9.1-42.5,9.1
	c-23.3,0-45.1-7.4-65.2-22.1l12.3-20.3c7.8,6.4,15.9,11.1,24.2,14.2c8.4,3.1,17.5,4.6,27.5,4.6c16.3,0,29.4-4.6,39.2-13.8
	c9.8-9.2,14.7-21.4,14.7-36.8v-22.1c-5.6,9.6-13.2,17-22.7,22.3c-9.6,5.3-20.5,7.9-32.9,7.9c-14.2,0-26.7-3.2-37.5-9.7
	c-10.9-6.5-19.3-15.5-25.3-27.1s-9-24.8-9-39.8c0-14.8,3-27.8,9-39.2s14.4-20.2,25.3-26.6c10.9-6.4,23.4-9.6,37.5-9.6
	c12.6,0,23.6,2.6,33.1,7.8s17,12.6,22.6,22.1v-29L1180,178.9L1180,178.9z M1127.7,300.7c7.6-4.6,13.5-10.9,17.8-19
	s6.4-17.2,6.4-27.4c0-10.4-2.1-19.6-6.4-27.7c-4.3-8.1-10.2-14.4-17.8-19c-7.6-4.6-16.3-6.9-26-6.9c-9.8,0-18.5,2.3-26.2,6.9
	c-7.7,4.6-13.7,10.9-18.1,19s-6.6,17.3-6.6,27.7c0.2,15.6,5,28.3,14.4,38.3s21.5,15,36.5,15C1111.4,307.5,1120.1,305.3,1127.7,300.7
	z"/>
<path class="st1" d="M267,178.4h-87.5L227.1,25H54.7L27.9,275.4h56.9L55.1,513L267,178.4z M59.2,247.3L80,53.2h108.8l-47.7,153.4
	h74.6l-117.1,185l18-144.3L59.2,247.3z"/>
<polygon class="st1" points="762.4,145 789.7,145 762.4,172.2 "/>
</svg>
