<?xml version="1.0" encoding="utf-8"?>
<!-- Generator: Adobe Illustrator 21.0.2, SVG Export Plug-In . SVG Version: 6.00 Build 0)  -->
<svg version="1.1" id="Слой_1" xmlns="http://www.w3.org/2000/svg" xmlns:xlink="http://www.w3.org/1999/xlink" x="0px" y="0px"
	 viewBox="0 0 1236 781" style="enable-background:new 0 0 1236 781;" xml:space="preserve">
<style type="text/css">
	.st0{fill:#000111;}
	.st1{fill:#E60329;}
</style>
<path class="st0" d="M419.4,353.5c-6.3-1.9-12.2-2.9-17.9-2.9c-6.7,0-12,1.2-16,3.7s-6.1,6.2-6.1,11.3c0,5.1,2.3,8.9,6.8,11.5
	s11.4,5.3,20.6,8c8.7,2.5,15.8,5.1,21.4,7.6c5.5,2.5,10.3,6.3,14.1,11.2c3.9,4.9,5.8,11.4,5.8,19.5c0,11.9-4.5,20.9-13.4,27.1
	c-9,6.2-20.1,9.3-33.4,9.3c-9.3,0-18.4-1.5-27.2-4.5c-8.8-3-16.2-7.3-22.2-12.8l8.3-16.2c5.2,4.8,11.7,8.6,19.4,11.4
	c7.7,2.9,15.2,4.3,22.5,4.3s13.1-1.3,17.6-4c4.4-2.7,6.7-6.8,6.7-12.4c0-5.7-2.3-10-7-12.8c-4.7-2.9-11.8-5.7-21.3-8.6
	c-8.4-2.4-15.2-4.8-20.6-7.2c-5.3-2.5-9.8-6.1-13.5-10.8c-3.7-4.8-5.6-10.9-5.6-18.5c0-11.7,4.3-20.5,12.8-26.4
	c8.6-5.9,19.2-8.8,32.1-8.8c7.6,0,15.1,1.1,22.5,3.2s13.7,5,19.1,8.7l-8.1,16.9C431.4,357.9,425.7,355.4,419.4,353.5z"/>
<path class="st0" d="M578.5,340.6c9.2,5.4,16.3,12.9,21.4,22.6c5.1,9.7,7.6,20.8,7.6,33.3c0,12.4-2.5,23.3-7.5,32.9
	s-12,17-21.1,22.3s-19.5,8-31.2,8c-10.6,0-20-2.2-28-6.7c-8.1-4.4-14.4-10.8-19-19v71h-22.1V333.3h22.1v24.9
	c4.6-8.2,10.9-14.6,18.9-19c8-4.4,17.2-6.7,27.7-6.7C558.9,332.5,569.3,335.2,578.5,340.6z M564.6,434.7c6.4-3.8,11.4-9.1,15-15.9
	s5.3-14.5,5.3-23c0-8.4-1.8-16-5.5-22.8c-3.6-6.8-8.6-12.1-15-15.9c-6.3-3.8-13.5-5.7-21.6-5.7s-15.3,1.9-21.7,5.7
	c-6.4,3.8-11.4,9.1-15.1,15.9c-3.6,6.8-5.5,14.4-5.5,22.8c0,8.7,1.8,16.4,5.5,23.2c3.6,6.7,8.7,12,15.1,15.8s13.7,5.7,21.7,5.7
	C550.9,440.4,558.2,438.5,564.6,434.7z"/>
<path class="st0" d="M678,339.8c7.6-4.7,16.6-7.1,27.1-7.2V354c-12.8-0.5-23.2,2.9-31.1,10c-7.9,7.1-12.4,16.7-13.5,28.7V459h-22.1
	V333.3h22.1v27.1C664.6,351.3,670.4,344.5,678,339.8z"/>
<rect x="729.1" y="333.3" class="st0" width="22.1" height="125.7"/>
<path class="st0" d="M898.8,345.5c8.4,8.6,12.6,20.6,12.6,35.8V459h-22.1v-71.8c0-10.6-3-18.9-8.9-24.8s-14.1-8.9-24.6-8.9
	c-11.2,0.2-20.4,3.8-27.4,10.8s-11,16.2-12,27.4v67.2h-22.1V333.3h22.1v26.6c8.4-17.9,24.3-27,47.8-27.3
	C878.8,332.5,890.4,336.9,898.8,345.5z"/>
<path class="st0" d="M1062,333.3v112.9c0,12-2.7,22.6-8,31.6s-12.8,16-22.5,20.8c-9.7,4.8-20.9,7.2-33.7,7.2
	c-18.5,0-35.8-5.9-51.8-17.6l9.7-16.2c6.2,5.1,12.6,8.8,19.2,11.3c6.7,2.5,13.9,3.7,21.9,3.7c13,0,23.4-3.6,31.1-10.9
	c7.8-7.3,11.6-17,11.6-29.2v-17.6c-4.4,7.6-10.5,13.5-18.1,17.7s-16.3,6.3-26.1,6.3c-11.2,0-21.2-2.6-29.8-7.7s-15.3-12.3-20.1-21.5
	s-7.1-19.7-7.1-31.6c0-11.7,2.4-22.1,7.1-31.1c4.8-9,11.4-16.1,20.1-21.1c8.6-5.1,18.6-7.6,29.8-7.6c10,0,18.7,2.1,26.3,6.2
	c7.5,4.1,13.5,10,17.9,17.6v-23h22.5V333.3z M1020.4,430c6-3.6,10.7-8.7,14.1-15.1s5.1-13.7,5.1-21.7c0-8.2-1.7-15.6-5.1-22
	s-8.1-11.4-14.1-15.1c-6-3.6-12.9-5.5-20.7-5.5s-14.7,1.8-20.8,5.5c-6.1,3.6-10.9,8.7-14.4,15.1s-5.2,13.7-5.2,22
	c0.2,12.4,4,22.5,11.4,30.4s17.1,11.9,29,11.9C1007.5,435.4,1014.4,433.6,1020.4,430z"/>
<path class="st1" d="M336.8,332.8h-69.5L305.1,211h-137l-21.3,198.9H192l-23.6,188.7L336.8,332.8z M171.8,387.5l16.5-154.2h86.5
	l-37.9,121.8h59.2l-93,146.9l14.3-114.6h-45.6V387.5z"/>
<polygon class="st1" points="730.3,306.3 752,306.3 730.3,328 "/>
</svg>
